inDegrees=no
num_controls=7
num_derivatives=13
num_iterations=99
num_multipliers=7
num_parameters=0
num_slacks=7
num_states=26
objective=0.312118
objective_accelerations=0.054785
objective_balance=0.002207
objective_effort=0.038178
objective_height=0.215361
objective_ligament=0.001588
solver_duration=1053.400035
status=Solve_Succeeded
success=true
DataType=double
version=3
OpenSimVersion=4.5
endheader
time	/jointset/ground_pelvis/pelvis_tilt/value	/jointset/ground_pelvis/pelvis_tx/value	/jointset/ground_pelvis/pelvis_ty/value	/jointset/hip_r/hip_flexion_r/value	/jointset/hip_r/hip_adduction_r/value	/jointset/hip_r/hip_rotation_r/value	/jointset/back/lumbar_extension/value	/jointset/patellofemoral_r/patellar_flexion_r/value	/jointset/knee_r/knee_flexion_r/value	/jointset/knee_r/knee_adduction_r/value	/jointset/knee_r/knee_rotation_r/value	/jointset/ankle_r/ankle_angle_r/value	/jointset/subtalar_r/subtalar_angle_r/value	/jointset/ground_pelvis/pelvis_tilt/speed	/jointset/ground_pelvis/pelvis_tx/speed	/jointset/ground_pelvis/pelvis_ty/speed	/jointset/hip_r/hip_flexion_r/speed	/jointset/hip_r/hip_adduction_r/speed	/jointset/hip_r/hip_rotation_r/speed	/jointset/back/lumbar_extension/speed	/jointset/patellofemoral_r/patellar_flexion_r/speed	/jointset/knee_r/knee_flexion_r/speed	/jointset/knee_r/knee_adduction_r/speed	/jointset/knee_r/knee_rotation_r/speed	/jointset/ankle_r/ankle_angle_r/speed	/jointset/subtalar_r/subtalar_angle_r/speed	/forceset/tau_hip_flexion_r	/forceset/tau_hip_adduction_r	/forceset/tau_hip_rotation_r	/forceset/tau_knee_flexion_r	/forceset/tau_ankle_angle_r	/forceset/tau_subtalar_angle_r	/forceset/tau_lumbar_extension	lambda_cid13_p0	lambda_cid14_p0	lambda_cid14_p1	lambda_cid14_p2	lambda_cid14_p3	lambda_cid14_p4	lambda_cid14_p5	/jointset/ground_pelvis/pelvis_tilt/accel	/jointset/ground_pelvis/pelvis_tx/accel	/jointset/ground_pelvis/pelvis_ty/accel	/jointset/hip_r/hip_flexion_r/accel	/jointset/hip_r/hip_adduction_r/accel	/jointset/hip_r/hip_rotation_r/accel	/jointset/back/lumbar_extension/accel	/jointset/patellofemoral_r/patellar_flexion_r/accel	/jointset/knee_r/knee_flexion_r/accel	/jointset/knee_r/knee_adduction_r/accel	/jointset/knee_r/knee_rotation_r/accel	/jointset/ankle_r/ankle_angle_r/accel	/jointset/subtalar_r/subtalar_angle_r/accel	gamma_cid13_p0	gamma_cid14_p0	gamma_cid14_p1	gamma_cid14_p2	gamma_cid14_p3	gamma_cid14_p4	gamma_cid14_p5
1	-0.3039852547309999	-0.02354113541993489	0.3677441304616116	2.181431479169226	-0.2338791586351558	0.1193500169291102	-0.7852430861418188	2.168433565762264	2.168433565762166	-0.1745296375935368	0.1745136227480175	0.4288923672050382	0.1752044664528291	0.04226767378435505	-0.005791881522049931	0.01203867507707878	-0.06163025990136584	0.000349458018017779	-0.004921396594899244	9.644729377595012e-05	-0.02162913882308586	-0.02162913882308576	0.002456773394364245	-0.001334502033837601	-0.003482250082854499	-0.001001853591719282	-0.4011436692831828	-0.007837331851356745	-0.01782027763251317	-0.515186658853408	-0.02200771397012779	-0.02252930045534907	0.396973309293945	-0.02606556021185709	-66.25163730963858	-27.15827762436896	11.3465693292595	32.55404164027208	-826.253918619714	63.5262933538822	-0.4659723295459614	-0.6962785898333353	2.963081010235745	-7.769538072880043	-0.3627918116001347	-2.45060924686831	-0.006795472140816447	-7.401400882191814	-7.401400882191607	0.4182231354529002	-0.2168925953624284	0.4732488397748618	-0.3744315111968599	2.406336038546271e-10	-4.76324055940163e-09	7.469232758464638e-09	1.771303007584012e-10	1.751341021922764e-08	-3.129481107798798e-10	-2.81007191475152e-09
1.01	-0.3035855340064653	-0.02363374154186253	0.3680129808824506	2.180425108581962	-0.2338927588435965	0.1191824534371449	-0.7852425126367945	2.167846820011199	2.167846820011126	-0.1744812010551254	0.17448886442565	0.4288822403246372	0.1751780983969635	0.03773208040767249	-0.0127114128806666	0.04175883942942853	-0.1397629878231385	-0.00306131584310693	-0.02845923341860781	3.430810005446197e-06	-0.09575332599518306	-0.09575332599517704	0.007344232791768873	-0.003571293136146874	0.001492554182780685	-0.004241798824102159	-0.4015603410323954	-0.007841773730719049	-0.01773920550955171	-0.5160746886464179	-0.02130593785748296	-0.02255184481408606	0.3976000704999582	-0.02602353595467228	-66.07940454867931	-27.15138746475182	11.36086384188048	32.17347972537531	-827.2210844439994	63.67805075887036	-0.4390109246709149	-0.6870976915301223	2.980595140367391	-7.853009695351727	-0.3289872694518211	-2.285565808527016	-0.01277817163529483	-7.422925394430727	-7.422925394430091	0.5410629360709979	-0.2201823010361249	0.5149461614030127	-0.2942731160629781	2.818450051494387e-09	-5.442193623873935e-09	2.702101662519633e-08	3.832910146013777e-08	1.61138517426374e-08	-1.761604397360033e-08	4.452052786022927e-08
1.02	-0.3032295008322834	-0.02379500443390726	0.3685798551453396	2.178633836806774	-0.233940220209865	0.1187834725952511	-0.785243313983641	2.166517832836471	2.166517832836425	-0.1743804788039275	0.1744431162055957	0.428922931475186	0.1751202314714132	0.03353016371332346	-0.0195232355454668	0.07164344348705083	-0.2186104974859495	-0.006422773547553401	-0.05120486657851436	-0.0001785230793785051	-0.1700774235557624	-0.1700774235557558	0.01291391595664313	-0.005532481573294674	0.006681356106222775	-0.007301627528644311	-0.4019770127816134	-0.007846215610103065	-0.01765813338657564	-0.516962718439429	-0.02060416174484272	-0.02257438917286629	0.3982268317059638	-0.02598081753919685	-65.90233183382431	-27.15146294065064	11.3851918964609	31.81151365861597	-828.1094986249805	63.74789755811516	-0.3992369930792601	-0.6747368510700457	2.995968951290252	-7.912494421087719	-0.3529285802644603	-2.292168514107895	-0.02458295326352544	-7.441382959888243	-7.441382959889102	0.5546678889468191	-0.1617720623301832	0.5160483713362285	-0.338408205628672	2.183387651581482e-08	1.031355072083915e-08	8.55075864024849e-08	1.360696607006222e-07	-2.068894166187678e-08	-5.083429693293791e-08	3.555155018339085e-07
1.03	-0.3029136607179218	-0.02402367568379099	0.3694462828156605	2.176051092863899	-0.2340209608258328	0.1181612214876617	-0.7852462433374238	2.164444881769408	2.164444881769445	-0.1742206691256779	0.1743793018317923	0.4290161527213298	0.1750326026018476	0.02971200270788803	-0.02617562024667755	0.1016584768678238	-0.2980048747150005	-0.009705650910536243	-0.0731241624733622	-0.0004113865633422336	-0.244517406012835	-0.2445174060128042	0.01912790141440937	-0.007192079617286861	0.01195862092927929	-0.01019334885568022	-0.4021851607302162	-0.007816000675012298	-0.01747212393400394	-0.5179412589555257	-0.01935375797874768	-0.02251931262786822	0.3987754692090953	-0.02591472197803587	-65.51683711516652	-27.07729476951062	11.39307038852811	31.07180834662627	-828.83087052648	63.92085495734867	-0.3619808047245302	-0.6551919478072072	3.006711429766169	-7.962894641853516	-0.3129828370772975	-2.123630703919179	-0.02324387894046088	-7.446006631678766	-7.446006631674652	0.6667096798241016	-0.1622360950624842	0.5329238160231651	-0.2598833866532485	4.101703369459127e-08	2.62369960595236e-08	1.443914499135549e-07	2.344182667582612e-07	-5.785299256565569e-08	-8.421494945448494e-08	6.692009286055351e-07
